<svg width="24" height="24" viewBox="0 0 24 24" fill="none" xmlns="http://www.w3.org/2000/svg">
<path d="M12 7.22118C14.5091 7.22118 16.5455 9.20754 16.5455 11.655C16.5455 12.1073 16.4545 12.5418 16.3273 12.9497L19.1091 15.6632C20.3727 14.5725 21.3727 13.2069 22 11.6461C20.4273 7.76211 16.5455 5.00426 12 5.00426C10.8455 5.00426 9.73636 5.18162 8.69091 5.50972L10.6636 7.434C11.0909 7.30986 11.5364 7.22118 12 7.22118ZM3.55455 4.25938C3.2 4.60522 3.2 5.16388 3.55455 5.50972L5.34545 7.25665C3.87273 8.40058 2.7 9.90808 2 11.655C3.57273 15.5479 7.45455 18.3058 12 18.3058C13.3818 18.3058 14.7 18.0397 15.9182 17.5786L18.3909 19.9906C18.7455 20.3365 19.3182 20.3365 19.6727 19.9906C20.0273 19.6448 20.0273 19.0861 19.6727 18.7403L4.84545 4.25938C4.49091 3.91354 3.90909 3.91354 3.55455 4.25938ZM12 16.0888C9.49091 16.0888 7.45455 14.1025 7.45455 11.655C7.45455 10.9722 7.61818 10.3249 7.9 9.75733L9.32727 11.1496C9.3 11.3092 9.27273 11.4777 9.27273 11.655C9.27273 13.127 10.4909 14.3153 12 14.3153C12.1818 14.3153 12.3455 14.2887 12.5182 14.2532L13.9455 15.6455C13.3545 15.9292 12.7 16.0888 12 16.0888ZM14.7 11.3624C14.5636 10.1209 13.5636 9.15433 12.3 9.02132L14.7 11.3624Z" fill="black"/>
<path d="M12 7.22118C14.5091 7.22118 16.5455 9.20754 16.5455 11.655C16.5455 12.1073 16.4545 12.5418 16.3273 12.9497L19.1091 15.6632C20.3727 14.5725 21.3727 13.2069 22 11.6461C20.4273 7.76211 16.5455 5.00426 12 5.00426C10.8455 5.00426 9.73636 5.18162 8.69091 5.50972L10.6636 7.434C11.0909 7.30986 11.5364 7.22118 12 7.22118ZM3.55455 4.25938C3.2 4.60522 3.2 5.16388 3.55455 5.50972L5.34545 7.25665C3.87273 8.40058 2.7 9.90808 2 11.655C3.57273 15.5479 7.45455 18.3058 12 18.3058C13.3818 18.3058 14.7 18.0397 15.9182 17.5786L18.3909 19.9906C18.7455 20.3365 19.3182 20.3365 19.6727 19.9906C20.0273 19.6448 20.0273 19.0861 19.6727 18.7403L4.84545 4.25938C4.49091 3.91354 3.90909 3.91354 3.55455 4.25938ZM12 16.0888C9.49091 16.0888 7.45455 14.1025 7.45455 11.655C7.45455 10.9722 7.61818 10.3249 7.9 9.75733L9.32727 11.1496C9.3 11.3092 9.27273 11.4777 9.27273 11.655C9.27273 13.127 10.4909 14.3153 12 14.3153C12.1818 14.3153 12.3455 14.2887 12.5182 14.2532L13.9455 15.6455C13.3545 15.9292 12.7 16.0888 12 16.0888ZM14.7 11.3624C14.5636 10.1209 13.5636 9.15433 12.3 9.02132L14.7 11.3624Z" fill="#016DCC"/>
<path d="M12 7.22118C14.5091 7.22118 16.5455 9.20754 16.5455 11.655C16.5455 12.1073 16.4545 12.5418 16.3273 12.9497L19.1091 15.6632C20.3727 14.5725 21.3727 13.2069 22 11.6461C20.4273 7.76211 16.5455 5.00426 12 5.00426C10.8455 5.00426 9.73636 5.18162 8.69091 5.50972L10.6636 7.434C11.0909 7.30986 11.5364 7.22118 12 7.22118ZM3.55455 4.25938C3.2 4.60522 3.2 5.16388 3.55455 5.50972L5.34545 7.25665C3.87273 8.40058 2.7 9.90808 2 11.655C3.57273 15.5479 7.45455 18.3058 12 18.3058C13.3818 18.3058 14.7 18.0397 15.9182 17.5786L18.3909 19.9906C18.7455 20.3365 19.3182 20.3365 19.6727 19.9906C20.0273 19.6448 20.0273 19.0861 19.6727 18.7403L4.84545 4.25938C4.49091 3.91354 3.90909 3.91354 3.55455 4.25938ZM12 16.0888C9.49091 16.0888 7.45455 14.1025 7.45455 11.655C7.45455 10.9722 7.61818 10.3249 7.9 9.75733L9.32727 11.1496C9.3 11.3092 9.27273 11.4777 9.27273 11.655C9.27273 13.127 10.4909 14.3153 12 14.3153C12.1818 14.3153 12.3455 14.2887 12.5182 14.2532L13.9455 15.6455C13.3545 15.9292 12.7 16.0888 12 16.0888ZM14.7 11.3624C14.5636 10.1209 13.5636 9.15433 12.3 9.02132L14.7 11.3624Z" fill="#B9B9B9"/>
<path d="M12 7.22118C14.5091 7.22118 16.5455 9.20754 16.5455 11.655C16.5455 12.1073 16.4545 12.5418 16.3273 12.9497L19.1091 15.6632C20.3727 14.5725 21.3727 13.2069 22 11.6461C20.4273 7.76211 16.5455 5.00426 12 5.00426C10.8455 5.00426 9.73636 5.18162 8.69091 5.50972L10.6636 7.434C11.0909 7.30986 11.5364 7.22118 12 7.22118ZM3.55455 4.25938C3.2 4.60522 3.2 5.16388 3.55455 5.50972L5.34545 7.25665C3.87273 8.40058 2.7 9.90808 2 11.655C3.57273 15.5479 7.45455 18.3058 12 18.3058C13.3818 18.3058 14.7 18.0397 15.9182 17.5786L18.3909 19.9906C18.7455 20.3365 19.3182 20.3365 19.6727 19.9906C20.0273 19.6448 20.0273 19.0861 19.6727 18.7403L4.84545 4.25938C4.49091 3.91354 3.90909 3.91354 3.55455 4.25938ZM12 16.0888C9.49091 16.0888 7.45455 14.1025 7.45455 11.655C7.45455 10.9722 7.61818 10.3249 7.9 9.75733L9.32727 11.1496C9.3 11.3092 9.27273 11.4777 9.27273 11.655C9.27273 13.127 10.4909 14.3153 12 14.3153C12.1818 14.3153 12.3455 14.2887 12.5182 14.2532L13.9455 15.6455C13.3545 15.9292 12.7 16.0888 12 16.0888ZM14.7 11.3624C14.5636 10.1209 13.5636 9.15433 12.3 9.02132L14.7 11.3624Z" fill="white"/>
<path d="M12 7.22118C14.5091 7.22118 16.5455 9.20754 16.5455 11.655C16.5455 12.1073 16.4545 12.5418 16.3273 12.9497L19.1091 15.6632C20.3727 14.5725 21.3727 13.2069 22 11.6461C20.4273 7.76211 16.5455 5.00426 12 5.00426C10.8455 5.00426 9.73636 5.18162 8.69091 5.50972L10.6636 7.434C11.0909 7.30986 11.5364 7.22118 12 7.22118ZM3.55455 4.25938C3.2 4.60522 3.2 5.16388 3.55455 5.50972L5.34545 7.25665C3.87273 8.40058 2.7 9.90808 2 11.655C3.57273 15.5479 7.45455 18.3058 12 18.3058C13.3818 18.3058 14.7 18.0397 15.9182 17.5786L18.3909 19.9906C18.7455 20.3365 19.3182 20.3365 19.6727 19.9906C20.0273 19.6448 20.0273 19.0861 19.6727 18.7403L4.84545 4.25938C4.49091 3.91354 3.90909 3.91354 3.55455 4.25938ZM12 16.0888C9.49091 16.0888 7.45455 14.1025 7.45455 11.655C7.45455 10.9722 7.61818 10.3249 7.9 9.75733L9.32727 11.1496C9.3 11.3092 9.27273 11.4777 9.27273 11.655C9.27273 13.127 10.4909 14.3153 12 14.3153C12.1818 14.3153 12.3455 14.2887 12.5182 14.2532L13.9455 15.6455C13.3545 15.9292 12.7 16.0888 12 16.0888ZM14.7 11.3624C14.5636 10.1209 13.5636 9.15433 12.3 9.02132L14.7 11.3624Z" fill="#706E6B"/>
</svg>
