<svg width="34" height="24" viewBox="0 0 34 24" fill="none" xmlns="http://www.w3.org/2000/svg">
<path d="M32.6596 12.2397H26.6277V9.46648C26.6277 8.31561 27.5257 7.38659 28.6383 7.38659C29.7509 7.38659 30.6489 8.31561 30.6489 9.46648V10.1596H31.9894V9.46648C31.9894 7.55298 30.4881 6 28.6383 6C26.7885 6 25.2872 7.55298 25.2872 9.46648V12.2397H24.617C23.8798 12.2397 23.2766 12.8636 23.2766 13.6263V17.6127C23.2766 18.3753 23.8798 18.9993 24.617 18.9993H32.6596C33.3968 18.9993 34 18.3753 34 17.6127V13.6263C34 12.8636 33.3968 12.2397 32.6596 12.2397Z" fill="black"/>
<path d="M12.6383 13.0413C12.6383 13.9391 11.9242 14.6662 11.0426 14.6662C10.1609 14.6662 9.44681 13.9391 9.44681 13.0413C9.44681 12.1435 10.1609 11.4164 11.0426 11.4164C11.9242 11.4164 12.6383 12.1435 12.6383 13.0413Z" fill="black"/>
<path fill-rule="evenodd" clip-rule="evenodd" d="M11.0429 7.08328C5.72408 7.08328 2 13.0416 2 13.0416C2 13.0416 4.71277 19 11.0429 19C17.4259 19 20.0858 13.0416 20.0858 13.0416C20.0858 13.0416 16.4156 7.08328 11.0429 7.08328ZM11.0429 16.8328C8.96842 16.8328 7.31983 15.154 7.31983 13.0416C7.31983 10.9293 8.96842 9.25052 11.0429 9.25052C13.1174 9.25052 14.766 10.9293 14.766 13.0416C14.766 15.154 13.1174 16.8328 11.0429 16.8328Z" fill="black"/>
<path d="M32.6596 12.2397H26.6277V9.46648C26.6277 8.31561 27.5257 7.38659 28.6383 7.38659C29.7509 7.38659 30.6489 8.31561 30.6489 9.46648V10.1596H31.9894V9.46648C31.9894 7.55298 30.4881 6 28.6383 6C26.7885 6 25.2872 7.55298 25.2872 9.46648V12.2397H24.617C23.8798 12.2397 23.2766 12.8636 23.2766 13.6263V17.6127C23.2766 18.3753 23.8798 18.9993 24.617 18.9993H32.6596C33.3968 18.9993 34 18.3753 34 17.6127V13.6263C34 12.8636 33.3968 12.2397 32.6596 12.2397Z" fill="#016DCC"/>
<path d="M12.6383 13.0413C12.6383 13.9391 11.9242 14.6662 11.0426 14.6662C10.1609 14.6662 9.44681 13.9391 9.44681 13.0413C9.44681 12.1435 10.1609 11.4164 11.0426 11.4164C11.9242 11.4164 12.6383 12.1435 12.6383 13.0413Z" fill="#016DCC"/>
<path fill-rule="evenodd" clip-rule="evenodd" d="M11.0429 7.08328C5.72408 7.08328 2 13.0416 2 13.0416C2 13.0416 4.71277 19 11.0429 19C17.4259 19 20.0858 13.0416 20.0858 13.0416C20.0858 13.0416 16.4156 7.08328 11.0429 7.08328ZM11.0429 16.8328C8.96842 16.8328 7.31983 15.154 7.31983 13.0416C7.31983 10.9293 8.96842 9.25052 11.0429 9.25052C13.1174 9.25052 14.766 10.9293 14.766 13.0416C14.766 15.154 13.1174 16.8328 11.0429 16.8328Z" fill="#016DCC"/>
<path d="M32.6596 12.2397H26.6277V9.46648C26.6277 8.31561 27.5257 7.38659 28.6383 7.38659C29.7509 7.38659 30.6489 8.31561 30.6489 9.46648V10.1596H31.9894V9.46648C31.9894 7.55298 30.4881 6 28.6383 6C26.7885 6 25.2872 7.55298 25.2872 9.46648V12.2397H24.617C23.8798 12.2397 23.2766 12.8636 23.2766 13.6263V17.6127C23.2766 18.3753 23.8798 18.9993 24.617 18.9993H32.6596C33.3968 18.9993 34 18.3753 34 17.6127V13.6263C34 12.8636 33.3968 12.2397 32.6596 12.2397Z" fill="#B9B9B9"/>
<path d="M12.6383 13.0413C12.6383 13.9391 11.9242 14.6662 11.0426 14.6662C10.1609 14.6662 9.44681 13.9391 9.44681 13.0413C9.44681 12.1435 10.1609 11.4164 11.0426 11.4164C11.9242 11.4164 12.6383 12.1435 12.6383 13.0413Z" fill="#B9B9B9"/>
<path fill-rule="evenodd" clip-rule="evenodd" d="M11.0429 7.08328C5.72408 7.08328 2 13.0416 2 13.0416C2 13.0416 4.71277 19 11.0429 19C17.4259 19 20.0858 13.0416 20.0858 13.0416C20.0858 13.0416 16.4156 7.08328 11.0429 7.08328ZM11.0429 16.8328C8.96842 16.8328 7.31983 15.154 7.31983 13.0416C7.31983 10.9293 8.96842 9.25052 11.0429 9.25052C13.1174 9.25052 14.766 10.9293 14.766 13.0416C14.766 15.154 13.1174 16.8328 11.0429 16.8328Z" fill="#B9B9B9"/>
<path d="M32.6596 12.2397H26.6277V9.46648C26.6277 8.31561 27.5257 7.38659 28.6383 7.38659C29.7509 7.38659 30.6489 8.31561 30.6489 9.46648V10.1596H31.9894V9.46648C31.9894 7.55298 30.4881 6 28.6383 6C26.7885 6 25.2872 7.55298 25.2872 9.46648V12.2397H24.617C23.8798 12.2397 23.2766 12.8636 23.2766 13.6263V17.6127C23.2766 18.3753 23.8798 18.9993 24.617 18.9993H32.6596C33.3968 18.9993 34 18.3753 34 17.6127V13.6263C34 12.8636 33.3968 12.2397 32.6596 12.2397Z" fill="white"/>
<path d="M12.6383 13.0413C12.6383 13.9391 11.9242 14.6662 11.0426 14.6662C10.1609 14.6662 9.44681 13.9391 9.44681 13.0413C9.44681 12.1435 10.1609 11.4164 11.0426 11.4164C11.9242 11.4164 12.6383 12.1435 12.6383 13.0413Z" fill="white"/>
<path fill-rule="evenodd" clip-rule="evenodd" d="M11.0429 7.08328C5.72408 7.08328 2 13.0416 2 13.0416C2 13.0416 4.71277 19 11.0429 19C17.4259 19 20.0858 13.0416 20.0858 13.0416C20.0858 13.0416 16.4156 7.08328 11.0429 7.08328ZM11.0429 16.8328C8.96842 16.8328 7.31983 15.154 7.31983 13.0416C7.31983 10.9293 8.96842 9.25052 11.0429 9.25052C13.1174 9.25052 14.766 10.9293 14.766 13.0416C14.766 15.154 13.1174 16.8328 11.0429 16.8328Z" fill="white"/>
<path d="M32.6596 12.2397H26.6277V9.46648C26.6277 8.31561 27.5257 7.38659 28.6383 7.38659C29.7509 7.38659 30.6489 8.31561 30.6489 9.46648V10.1596H31.9894V9.46648C31.9894 7.55298 30.4881 6 28.6383 6C26.7885 6 25.2872 7.55298 25.2872 9.46648V12.2397H24.617C23.8798 12.2397 23.2766 12.8636 23.2766 13.6263V17.6127C23.2766 18.3753 23.8798 18.9993 24.617 18.9993H32.6596C33.3968 18.9993 34 18.3753 34 17.6127V13.6263C34 12.8636 33.3968 12.2397 32.6596 12.2397Z" fill="#706E6B"/>
<path d="M12.6383 13.0413C12.6383 13.9391 11.9242 14.6662 11.0426 14.6662C10.1609 14.6662 9.44681 13.9391 9.44681 13.0413C9.44681 12.1435 10.1609 11.4164 11.0426 11.4164C11.9242 11.4164 12.6383 12.1435 12.6383 13.0413Z" fill="#706E6B"/>
<path fill-rule="evenodd" clip-rule="evenodd" d="M11.0429 7.08328C5.72408 7.08328 2 13.0416 2 13.0416C2 13.0416 4.71277 19 11.0429 19C17.4259 19 20.0858 13.0416 20.0858 13.0416C20.0858 13.0416 16.4156 7.08328 11.0429 7.08328ZM11.0429 16.8328C8.96842 16.8328 7.31983 15.154 7.31983 13.0416C7.31983 10.9293 8.96842 9.25052 11.0429 9.25052C13.1174 9.25052 14.766 10.9293 14.766 13.0416C14.766 15.154 13.1174 16.8328 11.0429 16.8328Z" fill="#706E6B"/>
</svg>
