<svg width="24" height="24" viewBox="0 0 24 24" fill="none" xmlns="http://www.w3.org/2000/svg">
<path d="M11.9996 13.2722C12.9746 13.2722 13.7643 12.479 13.7643 11.4996C13.7643 10.5203 12.9746 9.727 11.9996 9.727C11.0247 9.727 10.235 10.5203 10.235 11.4996C10.235 12.479 11.0247 13.2722 11.9996 13.2722Z" fill="black"/>
<path fill-rule="evenodd" clip-rule="evenodd" d="M2 11.5C2 11.5 6.11824 5 12 5C17.9413 5 22 11.5 22 11.5C22 11.5 19.0586 18 12 18C4.99989 18 2 11.5 2 11.5ZM7.88288 11.5C7.88288 13.8044 9.70597 15.6357 12 15.6357C14.294 15.6357 16.1171 13.8044 16.1171 11.5C16.1171 9.19559 14.294 7.36425 12 7.36425C9.70597 7.36425 7.88288 9.19559 7.88288 11.5Z" fill="black"/>
<path d="M11.9996 13.2722C12.9746 13.2722 13.7643 12.479 13.7643 11.4996C13.7643 10.5203 12.9746 9.727 11.9996 9.727C11.0247 9.727 10.235 10.5203 10.235 11.4996C10.235 12.479 11.0247 13.2722 11.9996 13.2722Z" fill="#016DCC"/>
<path fill-rule="evenodd" clip-rule="evenodd" d="M2 11.5C2 11.5 6.11824 5 12 5C17.9413 5 22 11.5 22 11.5C22 11.5 19.0586 18 12 18C4.99989 18 2 11.5 2 11.5ZM7.88288 11.5C7.88288 13.8044 9.70597 15.6357 12 15.6357C14.294 15.6357 16.1171 13.8044 16.1171 11.5C16.1171 9.19559 14.294 7.36425 12 7.36425C9.70597 7.36425 7.88288 9.19559 7.88288 11.5Z" fill="#016DCC"/>
<path d="M11.9996 13.2722C12.9746 13.2722 13.7643 12.479 13.7643 11.4996C13.7643 10.5203 12.9746 9.727 11.9996 9.727C11.0247 9.727 10.235 10.5203 10.235 11.4996C10.235 12.479 11.0247 13.2722 11.9996 13.2722Z" fill="#B9B9B9"/>
<path fill-rule="evenodd" clip-rule="evenodd" d="M2 11.5C2 11.5 6.11824 5 12 5C17.9413 5 22 11.5 22 11.5C22 11.5 19.0586 18 12 18C4.99989 18 2 11.5 2 11.5ZM7.88288 11.5C7.88288 13.8044 9.70597 15.6357 12 15.6357C14.294 15.6357 16.1171 13.8044 16.1171 11.5C16.1171 9.19559 14.294 7.36425 12 7.36425C9.70597 7.36425 7.88288 9.19559 7.88288 11.5Z" fill="#B9B9B9"/>
<path d="M11.9996 13.2722C12.9746 13.2722 13.7643 12.479 13.7643 11.4996C13.7643 10.5203 12.9746 9.727 11.9996 9.727C11.0247 9.727 10.235 10.5203 10.235 11.4996C10.235 12.479 11.0247 13.2722 11.9996 13.2722Z" fill="white"/>
<path fill-rule="evenodd" clip-rule="evenodd" d="M2 11.5C2 11.5 6.11824 5 12 5C17.9413 5 22 11.5 22 11.5C22 11.5 19.0586 18 12 18C4.99989 18 2 11.5 2 11.5ZM7.88288 11.5C7.88288 13.8044 9.70597 15.6357 12 15.6357C14.294 15.6357 16.1171 13.8044 16.1171 11.5C16.1171 9.19559 14.294 7.36425 12 7.36425C9.70597 7.36425 7.88288 9.19559 7.88288 11.5Z" fill="white"/>
<path d="M11.9996 13.2722C12.9746 13.2722 13.7643 12.479 13.7643 11.4996C13.7643 10.5203 12.9746 9.727 11.9996 9.727C11.0247 9.727 10.235 10.5203 10.235 11.4996C10.235 12.479 11.0247 13.2722 11.9996 13.2722Z" fill="#706E6B"/>
<path fill-rule="evenodd" clip-rule="evenodd" d="M2 11.5C2 11.5 6.11824 5 12 5C17.9413 5 22 11.5 22 11.5C22 11.5 19.0586 18 12 18C4.99989 18 2 11.5 2 11.5ZM7.88288 11.5C7.88288 13.8044 9.70597 15.6357 12 15.6357C14.294 15.6357 16.1171 13.8044 16.1171 11.5C16.1171 9.19559 14.294 7.36425 12 7.36425C9.70597 7.36425 7.88288 9.19559 7.88288 11.5Z" fill="#706E6B"/>
</svg>
