<svg width="34" height="24" viewBox="0 0 34 24" fill="none" xmlns="http://www.w3.org/2000/svg">
<path fill-rule="evenodd" clip-rule="evenodd" d="M21.0551 12C21.7822 12 22.2354 11.2145 21.8719 10.5889L18.3168 4.4692C17.9532 3.8436 17.0468 3.8436 16.6832 4.4692L13.1281 10.5889C12.7646 11.2145 13.2178 12 13.9449 12H21.0551ZM17.5 8.70734C17.2403 8.70734 17.0279 8.49566 17.0279 8.23695V6.29619C17.0279 6.03748 17.2403 5.82581 17.5 5.82581C17.7597 5.82581 17.9721 6.03748 17.9721 6.29619V8.23695C17.9721 8.49566 17.7597 8.70734 17.5 8.70734ZM17.0279 10.5889V9.6481H17.9721V10.5889H17.0279Z" fill="black"/>
<path d="M11 12.5C11 13.3287 10.3287 14 9.5 14C8.67126 14 8 13.3287 8 12.5C8 11.6713 8.67126 11 9.5 11C10.3287 11 11 11.6713 11 12.5Z" fill="black"/>
<path d="M17.7349 13H13.5748C13.3607 13 13.1608 12.9571 12.9801 12.8803C12.794 14.6479 11.3218 16 9.50032 16C7.55032 16 6.00064 14.4503 6.00064 12.5003C6.00064 10.5503 7.55032 9.00064 9.50032 9.00064C10.6499 9.00064 11.6604 9.53926 12.2963 10.381L13.5228 8.16416C12.3548 7.48367 10.9979 7 9.50032 7C4.50064 7 1 12.5003 1 12.5003C1 12.5003 3.55 18.0006 9.50032 18.0006C14.3848 18.0006 16.9499 14.3554 17.7349 13Z" fill="black"/>
<path fill-rule="evenodd" clip-rule="evenodd" d="M31.19 11.76H31.82C32.513 11.76 33.08 12.336 33.08 13.04V16.72C33.08 17.424 32.513 18 31.82 18H24.26C23.567 18 23 17.424 23 16.72V13.04C23 12.336 23.567 11.76 24.26 11.76H24.89V9.2C24.89 7.4336 26.3012 6 28.04 6C29.7788 6 31.19 7.4336 31.19 9.2V11.76ZM26.15 9.2V11.76H29.93V9.2C29.93 8.1376 29.0858 7.28 28.04 7.28C26.9942 7.28 26.15 8.1376 26.15 9.2Z" fill="black"/>
<path fill-rule="evenodd" clip-rule="evenodd" d="M21.0551 12C21.7822 12 22.2354 11.2145 21.8719 10.5889L18.3168 4.4692C17.9532 3.8436 17.0468 3.8436 16.6832 4.4692L13.1281 10.5889C12.7646 11.2145 13.2178 12 13.9449 12H21.0551ZM17.5 8.70734C17.2403 8.70734 17.0279 8.49566 17.0279 8.23695V6.29619C17.0279 6.03748 17.2403 5.82581 17.5 5.82581C17.7597 5.82581 17.9721 6.03748 17.9721 6.29619V8.23695C17.9721 8.49566 17.7597 8.70734 17.5 8.70734ZM17.0279 10.5889V9.6481H17.9721V10.5889H17.0279Z" fill="#016DCC"/>
<path d="M11 12.5C11 13.3287 10.3287 14 9.5 14C8.67126 14 8 13.3287 8 12.5C8 11.6713 8.67126 11 9.5 11C10.3287 11 11 11.6713 11 12.5Z" fill="#016DCC"/>
<path d="M17.7349 13H13.5748C13.3607 13 13.1608 12.9571 12.9801 12.8803C12.794 14.6479 11.3218 16 9.50032 16C7.55032 16 6.00064 14.4503 6.00064 12.5003C6.00064 10.5503 7.55032 9.00064 9.50032 9.00064C10.6499 9.00064 11.6604 9.53926 12.2963 10.381L13.5228 8.16416C12.3548 7.48367 10.9979 7 9.50032 7C4.50064 7 1 12.5003 1 12.5003C1 12.5003 3.55 18.0006 9.50032 18.0006C14.3848 18.0006 16.9499 14.3554 17.7349 13Z" fill="#016DCC"/>
<path fill-rule="evenodd" clip-rule="evenodd" d="M31.19 11.76H31.82C32.513 11.76 33.08 12.336 33.08 13.04V16.72C33.08 17.424 32.513 18 31.82 18H24.26C23.567 18 23 17.424 23 16.72V13.04C23 12.336 23.567 11.76 24.26 11.76H24.89V9.2C24.89 7.4336 26.3012 6 28.04 6C29.7788 6 31.19 7.4336 31.19 9.2V11.76ZM26.15 9.2V11.76H29.93V9.2C29.93 8.1376 29.0858 7.28 28.04 7.28C26.9942 7.28 26.15 8.1376 26.15 9.2Z" fill="#016DCC"/>
<path fill-rule="evenodd" clip-rule="evenodd" d="M21.0551 12C21.7822 12 22.2354 11.2145 21.8719 10.5889L18.3168 4.4692C17.9532 3.8436 17.0468 3.8436 16.6832 4.4692L13.1281 10.5889C12.7646 11.2145 13.2178 12 13.9449 12H21.0551ZM17.5 8.70734C17.2403 8.70734 17.0279 8.49566 17.0279 8.23695V6.29619C17.0279 6.03748 17.2403 5.82581 17.5 5.82581C17.7597 5.82581 17.9721 6.03748 17.9721 6.29619V8.23695C17.9721 8.49566 17.7597 8.70734 17.5 8.70734ZM17.0279 10.5889V9.6481H17.9721V10.5889H17.0279Z" fill="#B9B9B9"/>
<path d="M11 12.5C11 13.3287 10.3287 14 9.5 14C8.67126 14 8 13.3287 8 12.5C8 11.6713 8.67126 11 9.5 11C10.3287 11 11 11.6713 11 12.5Z" fill="#B9B9B9"/>
<path d="M17.7349 13H13.5748C13.3607 13 13.1608 12.9571 12.9801 12.8803C12.794 14.6479 11.3218 16 9.50032 16C7.55032 16 6.00064 14.4503 6.00064 12.5003C6.00064 10.5503 7.55032 9.00064 9.50032 9.00064C10.6499 9.00064 11.6604 9.53926 12.2963 10.381L13.5228 8.16416C12.3548 7.48367 10.9979 7 9.50032 7C4.50064 7 1 12.5003 1 12.5003C1 12.5003 3.55 18.0006 9.50032 18.0006C14.3848 18.0006 16.9499 14.3554 17.7349 13Z" fill="#B9B9B9"/>
<path fill-rule="evenodd" clip-rule="evenodd" d="M31.19 11.76H31.82C32.513 11.76 33.08 12.336 33.08 13.04V16.72C33.08 17.424 32.513 18 31.82 18H24.26C23.567 18 23 17.424 23 16.72V13.04C23 12.336 23.567 11.76 24.26 11.76H24.89V9.2C24.89 7.4336 26.3012 6 28.04 6C29.7788 6 31.19 7.4336 31.19 9.2V11.76ZM26.15 9.2V11.76H29.93V9.2C29.93 8.1376 29.0858 7.28 28.04 7.28C26.9942 7.28 26.15 8.1376 26.15 9.2Z" fill="#B9B9B9"/>
<path fill-rule="evenodd" clip-rule="evenodd" d="M21.0551 12C21.7822 12 22.2354 11.2145 21.8719 10.5889L18.3168 4.4692C17.9532 3.8436 17.0468 3.8436 16.6832 4.4692L13.1281 10.5889C12.7646 11.2145 13.2178 12 13.9449 12H21.0551ZM17.5 8.70734C17.2403 8.70734 17.0279 8.49566 17.0279 8.23695V6.29619C17.0279 6.03748 17.2403 5.82581 17.5 5.82581C17.7597 5.82581 17.9721 6.03748 17.9721 6.29619V8.23695C17.9721 8.49566 17.7597 8.70734 17.5 8.70734ZM17.0279 10.5889V9.6481H17.9721V10.5889H17.0279Z" fill="white"/>
<path d="M11 12.5C11 13.3287 10.3287 14 9.5 14C8.67126 14 8 13.3287 8 12.5C8 11.6713 8.67126 11 9.5 11C10.3287 11 11 11.6713 11 12.5Z" fill="white"/>
<path d="M17.7349 13H13.5748C13.3607 13 13.1608 12.9571 12.9801 12.8803C12.794 14.6479 11.3218 16 9.50032 16C7.55032 16 6.00064 14.4503 6.00064 12.5003C6.00064 10.5503 7.55032 9.00064 9.50032 9.00064C10.6499 9.00064 11.6604 9.53926 12.2963 10.381L13.5228 8.16416C12.3548 7.48367 10.9979 7 9.50032 7C4.50064 7 1 12.5003 1 12.5003C1 12.5003 3.55 18.0006 9.50032 18.0006C14.3848 18.0006 16.9499 14.3554 17.7349 13Z" fill="white"/>
<path fill-rule="evenodd" clip-rule="evenodd" d="M31.19 11.76H31.82C32.513 11.76 33.08 12.336 33.08 13.04V16.72C33.08 17.424 32.513 18 31.82 18H24.26C23.567 18 23 17.424 23 16.72V13.04C23 12.336 23.567 11.76 24.26 11.76H24.89V9.2C24.89 7.4336 26.3012 6 28.04 6C29.7788 6 31.19 7.4336 31.19 9.2V11.76ZM26.15 9.2V11.76H29.93V9.2C29.93 8.1376 29.0858 7.28 28.04 7.28C26.9942 7.28 26.15 8.1376 26.15 9.2Z" fill="white"/>
<path fill-rule="evenodd" clip-rule="evenodd" d="M21.0551 12C21.7822 12 22.2354 11.2145 21.8719 10.5889L18.3168 4.4692C17.9532 3.8436 17.0468 3.8436 16.6832 4.4692L13.1281 10.5889C12.7646 11.2145 13.2178 12 13.9449 12H21.0551ZM17.5 8.70734C17.2403 8.70734 17.0279 8.49566 17.0279 8.23695V6.29619C17.0279 6.03748 17.2403 5.82581 17.5 5.82581C17.7597 5.82581 17.9721 6.03748 17.9721 6.29619V8.23695C17.9721 8.49566 17.7597 8.70734 17.5 8.70734ZM17.0279 10.5889V9.6481H17.9721V10.5889H17.0279Z" fill="#706E6B"/>
<path d="M11 12.5C11 13.3287 10.3287 14 9.5 14C8.67126 14 8 13.3287 8 12.5C8 11.6713 8.67126 11 9.5 11C10.3287 11 11 11.6713 11 12.5Z" fill="#706E6B"/>
<path d="M17.7349 13H13.5748C13.3607 13 13.1608 12.9571 12.9801 12.8803C12.794 14.6479 11.3218 16 9.50032 16C7.55032 16 6.00064 14.4503 6.00064 12.5003C6.00064 10.5503 7.55032 9.00064 9.50032 9.00064C10.6499 9.00064 11.6604 9.53926 12.2963 10.381L13.5228 8.16416C12.3548 7.48367 10.9979 7 9.50032 7C4.50064 7 1 12.5003 1 12.5003C1 12.5003 3.55 18.0006 9.50032 18.0006C14.3848 18.0006 16.9499 14.3554 17.7349 13Z" fill="#706E6B"/>
<path fill-rule="evenodd" clip-rule="evenodd" d="M31.19 11.76H31.82C32.513 11.76 33.08 12.336 33.08 13.04V16.72C33.08 17.424 32.513 18 31.82 18H24.26C23.567 18 23 17.424 23 16.72V13.04C23 12.336 23.567 11.76 24.26 11.76H24.89V9.2C24.89 7.4336 26.3012 6 28.04 6C29.7788 6 31.19 7.4336 31.19 9.2V11.76ZM26.15 9.2V11.76H29.93V9.2C29.93 8.1376 29.0858 7.28 28.04 7.28C26.9942 7.28 26.15 8.1376 26.15 9.2Z" fill="#706E6B"/>
</svg>
